<?xml version="1.0" encoding="iso-8859-1"?>
<svg xmlns="http://www.w3.org/2000/svg" viewBox="0 0 480 480">
  <title>icon-mask</title>
  <path id="Shape" d="M240,149.16a90.78,90.78,0,1,0,90.78,90.78A90.78,90.78,0,0,0,240,149.16ZM98.46,239.94a141.54,141.54,0,1,1,283.06-3.36q0,1.68,0,3.36a142.15,142.15,0,0,1-.8,15.3,22,22,0,0,0,19.54,24.21,21.62,21.62,0,0,0,3.22.11c23.26,0,25.74-30,25.74-39.62,0-104.48-84.7-189.18-189.18-189.18S50.86,135.46,50.86,239.94,135.56,429.12,240,429.12a189.19,189.19,0,0,0,140-61.9l38.94,32.72c-88.33,98.82-240,107.33-338.88,19s-107.33-240-19-338.88,240.05-107.33,338.88-19A240,240,0,0,1,480,239.94c0,53.28-25.38,96.54-76.32,96.54-22.42,0-36-10.28-43.5-21.74a141.56,141.56,0,0,1-261.72-74.8ZM240,198.4a41.54,41.54,0,1,1-41.54,41.54A41.54,41.54,0,0,1,240,198.4Z"/>
</svg>
