<?xml version="1.0" encoding="iso-8859-1"?>
<svg xmlns="http://www.w3.org/2000/svg" viewBox="0 0 480 480">
  <defs>
    <style>
      .mailgun-cls-1 { fill: #c12126;   }
      .mailgun-cls-2 { fill: #fff; }
    </style>
  </defs>
  <title>mailgun-icon</title>
  <circle class="mailgun-cls-1" cx="240" cy="240" r="240"/>
  <path id="Shape" class="mailgun-cls-2" d="M240,194.61A45.39,45.39,0,1,0,285.39,240,45.39,45.39,0,0,0,240,194.61ZM169.23,240a70.77,70.77,0,1,1,141.53,0,71.49,71.49,0,0,1-.4,7.65,11,11,0,0,0,11.38,12.16c11.63,0,12.87-15,12.87-19.81A94.59,94.59,0,1,0,310,303.64L329.47,320A120,120,0,1,1,360,240c0,26.64-12.69,48.27-38.16,48.27-11.21,0-18-5.14-21.75-10.87A70.78,70.78,0,0,1,169.23,240ZM240,219.23A20.77,20.77,0,1,1,219.23,240,20.77,20.77,0,0,1,240,219.23Z"/>
</svg>
